<mxfile host="app.diagrams.net" modified="2022-03-07T07:37:50.048Z" agent="5.0 (Windows NT 10.0; Win64; x64) AppleWebKit/537.36 (KHTML, like Gecko) Chrome/99.0.4844.51 Safari/537.36" etag="h33cE52SX4UwWBHiAo26" version="16.6.5" type="github">
  <diagram id="QpHCLaUq6RoqsA1fP30t" name="Page-1">
    <mxGraphModel dx="1043" dy="613" grid="1" gridSize="10" guides="1" tooltips="1" connect="1" arrows="1" fold="1" page="1" pageScale="1" pageWidth="850" pageHeight="1100" math="0" shadow="0">
      <root>
        <mxCell id="0" />
        <mxCell id="1" parent="0" />
        <mxCell id="2sVnB2PPkFa4KDsbbvt0-8" style="edgeStyle=orthogonalEdgeStyle;rounded=0;orthogonalLoop=1;jettySize=auto;html=1;exitX=1;exitY=0.5;exitDx=0;exitDy=0;entryX=0;entryY=0.5;entryDx=0;entryDy=0;" edge="1" parent="1" source="2sVnB2PPkFa4KDsbbvt0-1" target="2sVnB2PPkFa4KDsbbvt0-2">
          <mxGeometry relative="1" as="geometry" />
        </mxCell>
        <mxCell id="2sVnB2PPkFa4KDsbbvt0-1" value="Banks" style="rounded=1;whiteSpace=wrap;html=1;" vertex="1" parent="1">
          <mxGeometry x="37" y="172.5" width="100" height="45" as="geometry" />
        </mxCell>
        <mxCell id="2sVnB2PPkFa4KDsbbvt0-99" style="edgeStyle=orthogonalEdgeStyle;rounded=0;orthogonalLoop=1;jettySize=auto;html=1;exitX=1;exitY=0.5;exitDx=0;exitDy=0;entryX=0;entryY=0.5;entryDx=0;entryDy=0;fontSize=9;" edge="1" parent="1" source="2sVnB2PPkFa4KDsbbvt0-2" target="2sVnB2PPkFa4KDsbbvt0-3">
          <mxGeometry relative="1" as="geometry" />
        </mxCell>
        <mxCell id="2sVnB2PPkFa4KDsbbvt0-2" value="&lt;span style=&quot;font-weight: bold ; white-space: pre&quot;&gt;	&lt;/span&gt;&lt;b&gt;Payment&lt;/b&gt;&lt;br&gt;&lt;span style=&quot;font-weight: bold ; white-space: pre&quot;&gt;	&lt;/span&gt;&lt;b&gt;Gateway&lt;/b&gt;&lt;br&gt;&lt;div&gt;&lt;span style=&quot;white-space: pre&quot;&gt;	&lt;/span&gt;&lt;span&gt;(Ipay 88, Faspay,&lt;/span&gt;&lt;/div&gt;&lt;div&gt;&lt;span&gt;&lt;span style=&quot;white-space: pre&quot;&gt;	&lt;/span&gt;Midtrans)&lt;/span&gt;&lt;/div&gt;" style="rounded=1;whiteSpace=wrap;html=1;align=left;" vertex="1" parent="1">
          <mxGeometry x="220" y="130" width="240" height="190" as="geometry" />
        </mxCell>
        <mxCell id="2sVnB2PPkFa4KDsbbvt0-3" value="&lt;b&gt;&lt;span style=&quot;white-space: pre&quot;&gt;	&lt;/span&gt;ESB&lt;/b&gt;" style="rounded=1;whiteSpace=wrap;html=1;align=left;" vertex="1" parent="1">
          <mxGeometry x="600" y="130" width="210" height="190" as="geometry" />
        </mxCell>
        <mxCell id="2sVnB2PPkFa4KDsbbvt0-4" value="ESB&lt;br&gt;Small Merchant" style="rounded=1;whiteSpace=wrap;html=1;" vertex="1" parent="1">
          <mxGeometry x="710" y="161.5" width="90" height="30" as="geometry" />
        </mxCell>
        <mxCell id="2sVnB2PPkFa4KDsbbvt0-5" value="ESB&lt;br&gt;Big Merchant" style="rounded=1;whiteSpace=wrap;html=1;" vertex="1" parent="1">
          <mxGeometry x="710" y="260" width="90" height="30" as="geometry" />
        </mxCell>
        <mxCell id="2sVnB2PPkFa4KDsbbvt0-9" style="edgeStyle=orthogonalEdgeStyle;rounded=0;orthogonalLoop=1;jettySize=auto;html=1;exitX=1;exitY=0.5;exitDx=0;exitDy=0;entryX=0;entryY=0.5;entryDx=0;entryDy=0;" edge="1" parent="1" source="2sVnB2PPkFa4KDsbbvt0-6" target="2sVnB2PPkFa4KDsbbvt0-2">
          <mxGeometry relative="1" as="geometry" />
        </mxCell>
        <mxCell id="2sVnB2PPkFa4KDsbbvt0-6" value="Emoney" style="rounded=1;whiteSpace=wrap;html=1;" vertex="1" parent="1">
          <mxGeometry x="37" y="232.5" width="100" height="45" as="geometry" />
        </mxCell>
        <mxCell id="2sVnB2PPkFa4KDsbbvt0-100" style="edgeStyle=orthogonalEdgeStyle;rounded=0;orthogonalLoop=1;jettySize=auto;html=1;exitX=1;exitY=0.5;exitDx=0;exitDy=0;fontSize=9;dashed=1;" edge="1" parent="1" source="2sVnB2PPkFa4KDsbbvt0-14" target="2sVnB2PPkFa4KDsbbvt0-4">
          <mxGeometry relative="1" as="geometry" />
        </mxCell>
        <mxCell id="2sVnB2PPkFa4KDsbbvt0-14" value="ESB Account" style="rounded=0;whiteSpace=wrap;html=1;fontSize=8;" vertex="1" parent="1">
          <mxGeometry x="357" y="161.5" width="90" height="58.5" as="geometry" />
        </mxCell>
        <mxCell id="2sVnB2PPkFa4KDsbbvt0-101" style="edgeStyle=orthogonalEdgeStyle;rounded=0;orthogonalLoop=1;jettySize=auto;html=1;exitX=1;exitY=0.5;exitDx=0;exitDy=0;entryX=0;entryY=0.75;entryDx=0;entryDy=0;fontSize=9;dashed=1;" edge="1" parent="1" source="2sVnB2PPkFa4KDsbbvt0-15" target="2sVnB2PPkFa4KDsbbvt0-5">
          <mxGeometry relative="1" as="geometry" />
        </mxCell>
        <mxCell id="2sVnB2PPkFa4KDsbbvt0-15" value="ESB Big&lt;br&gt;Merchant Account" style="rounded=0;whiteSpace=wrap;html=1;fontSize=8;" vertex="1" parent="1">
          <mxGeometry x="357" y="240" width="91" height="57.5" as="geometry" />
        </mxCell>
        <mxCell id="2sVnB2PPkFa4KDsbbvt0-19" value="Existing Business Relationship" style="text;html=1;strokeColor=none;fillColor=none;align=center;verticalAlign=middle;whiteSpace=wrap;rounded=0;fontSize=36;fontStyle=1" vertex="1" parent="1">
          <mxGeometry x="180" y="50" width="330" height="30" as="geometry" />
        </mxCell>
        <mxCell id="2sVnB2PPkFa4KDsbbvt0-20" value="Proposed Business Relationship" style="text;html=1;strokeColor=none;fillColor=none;align=center;verticalAlign=middle;whiteSpace=wrap;rounded=0;fontSize=36;fontStyle=1" vertex="1" parent="1">
          <mxGeometry x="150" y="400" width="382" height="30" as="geometry" />
        </mxCell>
        <mxCell id="2sVnB2PPkFa4KDsbbvt0-21" style="edgeStyle=orthogonalEdgeStyle;rounded=0;orthogonalLoop=1;jettySize=auto;html=1;exitX=1;exitY=0.5;exitDx=0;exitDy=0;entryX=0;entryY=0.5;entryDx=0;entryDy=0;" edge="1" parent="1" source="2sVnB2PPkFa4KDsbbvt0-22" target="2sVnB2PPkFa4KDsbbvt0-37">
          <mxGeometry relative="1" as="geometry">
            <mxPoint x="227" y="570" as="targetPoint" />
          </mxGeometry>
        </mxCell>
        <mxCell id="2sVnB2PPkFa4KDsbbvt0-22" value="Banks" style="rounded=1;whiteSpace=wrap;html=1;" vertex="1" parent="1">
          <mxGeometry x="37" y="517.5" width="100" height="45" as="geometry" />
        </mxCell>
        <mxCell id="2sVnB2PPkFa4KDsbbvt0-28" style="edgeStyle=orthogonalEdgeStyle;rounded=0;orthogonalLoop=1;jettySize=auto;html=1;exitX=1;exitY=0.5;exitDx=0;exitDy=0;entryX=0;entryY=0.5;entryDx=0;entryDy=0;startArrow=none;" edge="1" parent="1" source="2sVnB2PPkFa4KDsbbvt0-37">
          <mxGeometry relative="1" as="geometry">
            <mxPoint x="227" y="570" as="targetPoint" />
          </mxGeometry>
        </mxCell>
        <mxCell id="2sVnB2PPkFa4KDsbbvt0-29" value="Emoney" style="rounded=1;whiteSpace=wrap;html=1;" vertex="1" parent="1">
          <mxGeometry x="37" y="577.5" width="100" height="45" as="geometry" />
        </mxCell>
        <mxCell id="2sVnB2PPkFa4KDsbbvt0-39" style="edgeStyle=orthogonalEdgeStyle;rounded=0;orthogonalLoop=1;jettySize=auto;html=1;exitX=1;exitY=0.5;exitDx=0;exitDy=0;entryX=0;entryY=0.5;entryDx=0;entryDy=0;fontSize=8;" edge="1" parent="1" source="2sVnB2PPkFa4KDsbbvt0-37">
          <mxGeometry relative="1" as="geometry">
            <mxPoint x="285.0000000000002" y="570" as="targetPoint" />
          </mxGeometry>
        </mxCell>
        <mxCell id="2sVnB2PPkFa4KDsbbvt0-37" value="Fast&lt;br&gt;Checkout" style="rounded=1;whiteSpace=wrap;html=1;fontSize=8;fontStyle=1" vertex="1" parent="1">
          <mxGeometry x="200" y="540" width="40" height="60" as="geometry" />
        </mxCell>
        <mxCell id="2sVnB2PPkFa4KDsbbvt0-38" value="" style="edgeStyle=orthogonalEdgeStyle;rounded=0;orthogonalLoop=1;jettySize=auto;html=1;exitX=1;exitY=0.5;exitDx=0;exitDy=0;entryX=0;entryY=0.5;entryDx=0;entryDy=0;endArrow=none;" edge="1" parent="1" source="2sVnB2PPkFa4KDsbbvt0-29" target="2sVnB2PPkFa4KDsbbvt0-37">
          <mxGeometry relative="1" as="geometry">
            <mxPoint x="137" y="587.5" as="sourcePoint" />
            <mxPoint x="227" y="570" as="targetPoint" />
          </mxGeometry>
        </mxCell>
        <mxCell id="2sVnB2PPkFa4KDsbbvt0-59" value="&lt;font style=&quot;font-size: 9px;&quot;&gt;INDEPAY&lt;/font&gt;" style="text;html=1;strokeColor=none;fillColor=none;align=center;verticalAlign=middle;whiteSpace=wrap;rounded=0;fontSize=9;fontStyle=1" vertex="1" parent="1">
          <mxGeometry x="197.5" y="520" width="45" height="20" as="geometry" />
        </mxCell>
        <mxCell id="2sVnB2PPkFa4KDsbbvt0-102" style="edgeStyle=orthogonalEdgeStyle;rounded=0;orthogonalLoop=1;jettySize=auto;html=1;exitX=1;exitY=0.5;exitDx=0;exitDy=0;entryX=0;entryY=0.5;entryDx=0;entryDy=0;fontSize=9;" edge="1" parent="1" source="2sVnB2PPkFa4KDsbbvt0-103" target="2sVnB2PPkFa4KDsbbvt0-104">
          <mxGeometry relative="1" as="geometry" />
        </mxCell>
        <mxCell id="2sVnB2PPkFa4KDsbbvt0-103" value="&lt;span style=&quot;font-weight: bold ; white-space: pre&quot;&gt;	&lt;/span&gt;&lt;b&gt;Payment&lt;/b&gt;&lt;br&gt;&lt;span style=&quot;font-weight: bold ; white-space: pre&quot;&gt;	&lt;/span&gt;&lt;b&gt;Gateway&lt;/b&gt;&lt;br&gt;&lt;div&gt;&lt;span style=&quot;white-space: pre&quot;&gt;	&lt;/span&gt;&lt;span&gt;(Faspay&lt;/span&gt;&lt;span&gt;)&lt;/span&gt;&lt;/div&gt;" style="rounded=1;whiteSpace=wrap;html=1;align=left;" vertex="1" parent="1">
          <mxGeometry x="283" y="480" width="240" height="190" as="geometry" />
        </mxCell>
        <mxCell id="2sVnB2PPkFa4KDsbbvt0-104" value="&lt;b&gt;&lt;span style=&quot;white-space: pre&quot;&gt;	&lt;/span&gt;ESB&lt;/b&gt;" style="rounded=1;whiteSpace=wrap;html=1;align=left;" vertex="1" parent="1">
          <mxGeometry x="663" y="480" width="210" height="190" as="geometry" />
        </mxCell>
        <mxCell id="2sVnB2PPkFa4KDsbbvt0-105" value="ESB&lt;br&gt;Small Merchant" style="rounded=1;whiteSpace=wrap;html=1;" vertex="1" parent="1">
          <mxGeometry x="773" y="511.5" width="90" height="30" as="geometry" />
        </mxCell>
        <mxCell id="2sVnB2PPkFa4KDsbbvt0-106" value="ESB&lt;br&gt;Big Merchant" style="rounded=1;whiteSpace=wrap;html=1;" vertex="1" parent="1">
          <mxGeometry x="773" y="610" width="90" height="30" as="geometry" />
        </mxCell>
        <mxCell id="2sVnB2PPkFa4KDsbbvt0-107" style="edgeStyle=orthogonalEdgeStyle;rounded=0;orthogonalLoop=1;jettySize=auto;html=1;exitX=1;exitY=0.5;exitDx=0;exitDy=0;fontSize=9;dashed=1;" edge="1" parent="1" source="2sVnB2PPkFa4KDsbbvt0-108" target="2sVnB2PPkFa4KDsbbvt0-105">
          <mxGeometry relative="1" as="geometry">
            <Array as="points">
              <mxPoint x="510" y="575" />
              <mxPoint x="510" y="527" />
            </Array>
          </mxGeometry>
        </mxCell>
        <mxCell id="2sVnB2PPkFa4KDsbbvt0-111" style="edgeStyle=orthogonalEdgeStyle;rounded=0;orthogonalLoop=1;jettySize=auto;html=1;exitX=1;exitY=0.5;exitDx=0;exitDy=0;entryX=0;entryY=0.5;entryDx=0;entryDy=0;dashed=1;fontSize=9;" edge="1" parent="1" source="2sVnB2PPkFa4KDsbbvt0-108" target="2sVnB2PPkFa4KDsbbvt0-106">
          <mxGeometry relative="1" as="geometry">
            <Array as="points">
              <mxPoint x="510" y="575" />
              <mxPoint x="510" y="625" />
            </Array>
          </mxGeometry>
        </mxCell>
        <mxCell id="2sVnB2PPkFa4KDsbbvt0-108" value="ESB Account" style="rounded=0;whiteSpace=wrap;html=1;fontSize=8;" vertex="1" parent="1">
          <mxGeometry x="410" y="545.75" width="90" height="58.5" as="geometry" />
        </mxCell>
        <mxCell id="2sVnB2PPkFa4KDsbbvt0-112" style="edgeStyle=orthogonalEdgeStyle;rounded=0;orthogonalLoop=1;jettySize=auto;html=1;exitX=1;exitY=0.5;exitDx=0;exitDy=0;entryX=0;entryY=0.5;entryDx=0;entryDy=0;" edge="1" parent="1" source="2sVnB2PPkFa4KDsbbvt0-113" target="2sVnB2PPkFa4KDsbbvt0-117">
          <mxGeometry relative="1" as="geometry">
            <mxPoint x="227" y="820" as="targetPoint" />
          </mxGeometry>
        </mxCell>
        <mxCell id="2sVnB2PPkFa4KDsbbvt0-113" value="Banks" style="rounded=1;whiteSpace=wrap;html=1;" vertex="1" parent="1">
          <mxGeometry x="37" y="767.5" width="100" height="45" as="geometry" />
        </mxCell>
        <mxCell id="2sVnB2PPkFa4KDsbbvt0-114" style="edgeStyle=orthogonalEdgeStyle;rounded=0;orthogonalLoop=1;jettySize=auto;html=1;exitX=1;exitY=0.5;exitDx=0;exitDy=0;entryX=0;entryY=0.5;entryDx=0;entryDy=0;startArrow=none;" edge="1" parent="1" source="2sVnB2PPkFa4KDsbbvt0-117">
          <mxGeometry relative="1" as="geometry">
            <mxPoint x="227" y="820" as="targetPoint" />
          </mxGeometry>
        </mxCell>
        <mxCell id="2sVnB2PPkFa4KDsbbvt0-115" value="Emoney" style="rounded=1;whiteSpace=wrap;html=1;" vertex="1" parent="1">
          <mxGeometry x="37" y="827.5" width="100" height="45" as="geometry" />
        </mxCell>
        <mxCell id="2sVnB2PPkFa4KDsbbvt0-116" style="edgeStyle=orthogonalEdgeStyle;rounded=0;orthogonalLoop=1;jettySize=auto;html=1;exitX=1;exitY=0.5;exitDx=0;exitDy=0;entryX=0;entryY=0.5;entryDx=0;entryDy=0;fontSize=8;" edge="1" parent="1" source="2sVnB2PPkFa4KDsbbvt0-117">
          <mxGeometry relative="1" as="geometry">
            <mxPoint x="285.0000000000002" y="820" as="targetPoint" />
          </mxGeometry>
        </mxCell>
        <mxCell id="2sVnB2PPkFa4KDsbbvt0-117" value="Fast&lt;br&gt;Checkout" style="rounded=1;whiteSpace=wrap;html=1;fontSize=8;fontStyle=1" vertex="1" parent="1">
          <mxGeometry x="200" y="790" width="40" height="60" as="geometry" />
        </mxCell>
        <mxCell id="2sVnB2PPkFa4KDsbbvt0-118" value="" style="edgeStyle=orthogonalEdgeStyle;rounded=0;orthogonalLoop=1;jettySize=auto;html=1;exitX=1;exitY=0.5;exitDx=0;exitDy=0;entryX=0;entryY=0.5;entryDx=0;entryDy=0;endArrow=none;" edge="1" parent="1" source="2sVnB2PPkFa4KDsbbvt0-115" target="2sVnB2PPkFa4KDsbbvt0-117">
          <mxGeometry relative="1" as="geometry">
            <mxPoint x="137" y="837.5" as="sourcePoint" />
            <mxPoint x="227" y="820" as="targetPoint" />
          </mxGeometry>
        </mxCell>
        <mxCell id="2sVnB2PPkFa4KDsbbvt0-119" value="&lt;font style=&quot;font-size: 9px;&quot;&gt;INDEPAY&lt;/font&gt;" style="text;html=1;strokeColor=none;fillColor=none;align=center;verticalAlign=middle;whiteSpace=wrap;rounded=0;fontSize=9;fontStyle=1" vertex="1" parent="1">
          <mxGeometry x="197.5" y="770" width="45" height="20" as="geometry" />
        </mxCell>
        <mxCell id="2sVnB2PPkFa4KDsbbvt0-120" style="edgeStyle=orthogonalEdgeStyle;rounded=0;orthogonalLoop=1;jettySize=auto;html=1;exitX=1;exitY=0.5;exitDx=0;exitDy=0;entryX=0;entryY=0.5;entryDx=0;entryDy=0;fontSize=9;" edge="1" parent="1" source="2sVnB2PPkFa4KDsbbvt0-121" target="2sVnB2PPkFa4KDsbbvt0-122">
          <mxGeometry relative="1" as="geometry" />
        </mxCell>
        <mxCell id="2sVnB2PPkFa4KDsbbvt0-121" value="&lt;span style=&quot;font-weight: bold ; white-space: pre&quot;&gt;	&lt;/span&gt;&lt;b&gt;Payment&lt;/b&gt;&lt;br&gt;&lt;span style=&quot;font-weight: bold ; white-space: pre&quot;&gt;	&lt;/span&gt;&lt;b&gt;Gateway&lt;/b&gt;&lt;br&gt;&lt;div&gt;&lt;span style=&quot;white-space: pre&quot;&gt;	&lt;/span&gt;&lt;span&gt;(Faspay&lt;/span&gt;&lt;span&gt;)&lt;/span&gt;&lt;/div&gt;" style="rounded=1;whiteSpace=wrap;html=1;align=left;" vertex="1" parent="1">
          <mxGeometry x="283" y="730" width="240" height="190" as="geometry" />
        </mxCell>
        <mxCell id="2sVnB2PPkFa4KDsbbvt0-122" value="&lt;b&gt;&lt;span style=&quot;white-space: pre&quot;&gt;	&lt;/span&gt;ESB&lt;/b&gt;" style="rounded=1;whiteSpace=wrap;html=1;align=left;" vertex="1" parent="1">
          <mxGeometry x="663" y="730" width="210" height="190" as="geometry" />
        </mxCell>
        <mxCell id="2sVnB2PPkFa4KDsbbvt0-123" value="ESB&lt;br&gt;Small Merchant" style="rounded=1;whiteSpace=wrap;html=1;" vertex="1" parent="1">
          <mxGeometry x="773" y="761.5" width="90" height="30" as="geometry" />
        </mxCell>
        <mxCell id="2sVnB2PPkFa4KDsbbvt0-124" value="ESB&lt;br&gt;Big Merchant" style="rounded=1;whiteSpace=wrap;html=1;" vertex="1" parent="1">
          <mxGeometry x="773" y="860" width="90" height="30" as="geometry" />
        </mxCell>
        <mxCell id="2sVnB2PPkFa4KDsbbvt0-130" style="edgeStyle=orthogonalEdgeStyle;rounded=0;orthogonalLoop=1;jettySize=auto;html=1;exitX=1;exitY=0.5;exitDx=0;exitDy=0;dashed=1;fontSize=9;" edge="1" parent="1" source="2sVnB2PPkFa4KDsbbvt0-127" target="2sVnB2PPkFa4KDsbbvt0-123">
          <mxGeometry relative="1" as="geometry" />
        </mxCell>
        <mxCell id="2sVnB2PPkFa4KDsbbvt0-127" value="ESB Account" style="rounded=0;whiteSpace=wrap;html=1;fontSize=8;" vertex="1" parent="1">
          <mxGeometry x="410" y="750.75" width="90" height="58.5" as="geometry" />
        </mxCell>
        <mxCell id="2sVnB2PPkFa4KDsbbvt0-129" style="edgeStyle=orthogonalEdgeStyle;rounded=0;orthogonalLoop=1;jettySize=auto;html=1;exitX=1;exitY=0.5;exitDx=0;exitDy=0;entryX=0;entryY=0.5;entryDx=0;entryDy=0;dashed=1;fontSize=9;" edge="1" parent="1" source="2sVnB2PPkFa4KDsbbvt0-128" target="2sVnB2PPkFa4KDsbbvt0-124">
          <mxGeometry relative="1" as="geometry" />
        </mxCell>
        <mxCell id="2sVnB2PPkFa4KDsbbvt0-128" value="ESB Bug&lt;br&gt;Merchant Account" style="rounded=0;whiteSpace=wrap;html=1;fontSize=8;" vertex="1" parent="1">
          <mxGeometry x="410" y="840" width="90" height="58.5" as="geometry" />
        </mxCell>
      </root>
    </mxGraphModel>
  </diagram>
</mxfile>
